<svg xmlns="http://www.w3.org/2000/svg" xmlns:xlink="http://www.w3.org/1999/xlink" viewBox="0 0 785.37 609.46"><defs><linearGradient id="b9c30c89-c9bc-4879-b6b6-c570cdd84e04" x1="676.71" y1="561.85" x2="305.69" y2="190.83" gradientUnits="userSpaceOnUse"><stop offset="0" stop-color="#58789a"/><stop offset="1" stop-color="#9eb5cb"/></linearGradient><linearGradient id="bd8dd238-f08e-4e77-b4ef-3c2ad2e9365b" x1="389.26" y1="354.51" x2="93.57" y2="58.81" xlink:href="#b9c30c89-c9bc-4879-b6b6-c570cdd84e04"/><linearGradient id="e983f26e-4fdd-48b6-afe0-4ba6d6df3f98" x1="517.76" y1="-17.56" x2="419.78" y2="-115.54" gradientTransform="matrix(-0.87, 0.49, 0.49, 0.87, 1096.39, 362.99)" gradientUnits="userSpaceOnUse"><stop offset="0" stop-color="#1773e2"/><stop offset="1" stop-color="#b3dfff"/></linearGradient><linearGradient id="a5c89807-5c18-479b-a25d-3d7a1fe72f1c" x1="640.47" y1="-87.03" x2="542.49" y2="-185.02" xlink:href="#e983f26e-4fdd-48b6-afe0-4ba6d6df3f98"/><linearGradient id="e6a374b3-3ed9-4c36-9643-4dd82ca81f5f" x1="768.39" y1="-159.46" x2="670.4" y2="-257.44" xlink:href="#e983f26e-4fdd-48b6-afe0-4ba6d6df3f98"/></defs><g id="b735c39b-b2ed-43d1-9a3d-752119122fdd" data-name="Layer 2"><g id="a92993a0-1c45-4ec9-b051-49cb734384a1" data-name="Icon"><path d="M693.48,291.25V291a173.9,173.9,0,0,0-84-148.92A125.81,125.81,0,0,0,534,117q-3.39,0-6.74.18c-2.57-.11-5.14-.18-7.73-.18A174,174,0,0,0,360,221.43a150.69,150.69,0,1,0-21,299.92,153.78,153.78,0,0,0,16.43-.89,137.9,137.9,0,0,0,15.56.89H671.08a107.82,107.82,0,0,0,52.77-13.71,116.36,116.36,0,0,0-30.37-216.39Z" style="fill:url(#b9c30c89-c9bc-4879-b6b6-c570cdd84e04)"/><path d="M402.63,138.85v-.18A138.6,138.6,0,0,0,335.72,20,100.24,100.24,0,0,0,275.49,0c-1.8,0-3.6.05-5.38.14Q267,0,264,0A138.7,138.7,0,0,0,136.83,83.2,121.46,121.46,0,0,0,120.1,82a120.1,120.1,0,0,0,0,240.2,123.06,123.06,0,0,0,13.09-.71,110.4,110.4,0,0,0,12.4.71H384.78a86,86,0,0,0,42.05-10.92,92.74,92.74,0,0,0-24.2-172.46Z" style="fill:url(#bd8dd238-f08e-4e77-b4ef-3c2ad2e9365b)"/><path d="M613.39,540.89l-9-76.42a10.14,10.14,0,0,1,16.26-9.21l60.91,47c29.83,20.41,41.17,43,37,65.28-4.08,22-20.16,32.18-25.25,35.07h0c-5.1,2.89-22.09,11.44-43.06,3.61C629.1,598.33,615.54,577,613.39,540.89Z" style="fill:url(#e983f26e-4fdd-48b6-afe0-4ba6d6df3f98)"/><path d="M472.38,540.89l-9-76.42a10.14,10.14,0,0,1,16.26-9.21l60.91,47c29.83,20.41,41.17,43,37,65.28-4.08,22-20.16,32.18-25.25,35.07h0c-5.1,2.89-22.09,11.44-43.06,3.61C488.09,598.33,474.53,577,472.38,540.89Z" style="fill:url(#a5c89807-5c18-479b-a25d-3d7a1fe72f1c)"/><path d="M325.39,540.89l-9-76.42a10.14,10.14,0,0,1,16.26-9.21l60.91,47c29.84,20.41,41.17,43,37.05,65.28-4.08,22-20.16,32.18-25.26,35.07h0c-5.09,2.89-22.09,11.44-43.06,3.61C341.09,598.33,327.54,577,325.39,540.89Z" style="fill:url(#e6a374b3-3ed9-4c36-9643-4dd82ca81f5f)"/></g></g></svg>