<svg xmlns="http://www.w3.org/2000/svg" xmlns:xlink="http://www.w3.org/1999/xlink" viewBox="0 0 785.37 617.46"><defs><linearGradient id="b47e6373-da98-4227-931f-983c1e215af5" x1="676.71" y1="561.85" x2="305.69" y2="190.83" gradientUnits="userSpaceOnUse"><stop offset="0" stop-color="#58789a"/><stop offset="1" stop-color="#9eb5cb"/></linearGradient><linearGradient id="a6c11d8a-d1d4-4d4e-a80c-671810d12c34" x1="551.56" y1="518.94" x2="415.33" y2="382.72" gradientUnits="userSpaceOnUse"><stop offset="0" stop-color="#f78700"/><stop offset="1" stop-color="#f4d100"/></linearGradient><linearGradient id="b7c4d1b6-fdee-4480-9ba4-7241fc8ef2a1" x1="389.26" y1="354.51" x2="93.57" y2="58.81" xlink:href="#b47e6373-da98-4227-931f-983c1e215af5"/></defs><g id="afc558de-1013-466b-a828-ef5960c31e20" data-name="Layer 2"><g id="e05b732c-2f48-46a1-9020-c3fdca0ac572" data-name="Icon"><path d="M693.48,291.25V291a173.9,173.9,0,0,0-84-148.92A125.81,125.81,0,0,0,534,117q-3.39,0-6.74.18c-2.57-.11-5.14-.18-7.73-.18A174,174,0,0,0,360,221.43a150.69,150.69,0,1,0-21,299.92,153.78,153.78,0,0,0,16.43-.89,137.9,137.9,0,0,0,15.56.89H671.08a107.82,107.82,0,0,0,52.77-13.71,116.36,116.36,0,0,0-30.37-216.39Z" style="fill:url(#b47e6373-da98-4227-931f-983c1e215af5)"/><path d="M510.5,287.77,390.3,463A8.16,8.16,0,0,0,397,475.74h66l-21.5,132.75c-.82,8.33,9.95,12.34,14.77,5.49l126.75-179.9a8.15,8.15,0,0,0-6.66-12.85H506.9L525.35,293A8.15,8.15,0,0,0,510.5,287.77Z" style="fill:url(#a6c11d8a-d1d4-4d4e-a80c-671810d12c34)"/><path d="M402.63,138.85v-.18A138.6,138.6,0,0,0,335.72,20,100.24,100.24,0,0,0,275.49,0c-1.8,0-3.6.05-5.38.14Q267,0,264,0A138.7,138.7,0,0,0,136.83,83.2,121.46,121.46,0,0,0,120.1,82a120.1,120.1,0,0,0,0,240.2,123.06,123.06,0,0,0,13.09-.71,110.4,110.4,0,0,0,12.4.71H384.78a86,86,0,0,0,42.05-10.92,92.74,92.74,0,0,0-24.2-172.46Z" style="fill:url(#b7c4d1b6-fdee-4480-9ba4-7241fc8ef2a1)"/></g></g></svg>