<svg xmlns="http://www.w3.org/2000/svg" xmlns:xlink="http://www.w3.org/1999/xlink" viewBox="0 0 508.66 442.99"><defs><linearGradient id="ac14fd33-5883-4204-b4dc-de20548bb8d0" x1="423.92" y1="376.43" x2="85.61" y2="88.46" gradientTransform="translate(-42.48 -1.97) rotate(4.59)" gradientUnits="userSpaceOnUse"><stop offset="0" stop-color="#b4bbc1"/><stop offset="0.74" stop-color="#f2f3f4"/></linearGradient><linearGradient id="a26916ee-dacd-4775-9d7b-dbdd3603d785" x1="452.68" y1="250.93" x2="261.52" y2="59.77" gradientUnits="userSpaceOnUse"><stop offset="0" stop-color="#2d8ac4"/><stop offset="1" stop-color="#88d2ff"/></linearGradient></defs><g id="a2251ebc-b5cc-43c7-9442-8df2a60da5ac" data-name="Layer 2"><g id="e1908855-b65d-4735-82ca-f3ab02ee58f5" data-name="Icon"><path d="M432,283.47c-77.27,65.77-193.23,56.45-259-20.82s-56.45-193.23,20.82-259c1.47-1.25,3-2.46,4.44-3.65A221,221,0,0,0,78.16,51.71C-15.26,131.23-26.53,271.42,53,364.84S272.69,469.52,366.11,390a221.14,221.14,0,0,0,70.24-110.34C434.93,281,433.5,282.22,432,283.47Z" style="fill:url(#ac14fd33-5883-4204-b4dc-de20548bb8d0)"/><path d="M461.32,111.51v-.12a89.59,89.59,0,0,0-43.26-76.72,64.81,64.81,0,0,0-38.94-12.93c-1.16,0-2.32,0-3.47.1-1.32-.06-2.65-.1-4-.1a89.68,89.68,0,0,0-82.19,53.79,78.64,78.64,0,0,0-10.82-.75,77.64,77.64,0,0,0,0,155.28,79,79,0,0,0,8.47-.46,70.66,70.66,0,0,0,8,.46H449.78A55.54,55.54,0,0,0,477,223a60,60,0,0,0-15.65-111.49Z" style="fill:url(#a26916ee-dacd-4775-9d7b-dbdd3603d785)"/></g></g></svg>