<svg xmlns="http://www.w3.org/2000/svg" xmlns:xlink="http://www.w3.org/1999/xlink" viewBox="0 0 798.16 628.23"><defs><radialGradient id="abedade9-00a8-4da7-a07f-e2d77eef6b9a" cx="534.39" cy="263.77" r="263.77" gradientUnits="userSpaceOnUse"><stop offset="0" stop-color="#65808b"/><stop offset="0.73" stop-color="#09364d"/><stop offset="0.92" stop-color="#003047"/></radialGradient><linearGradient id="f3a4c90e-a3d5-4d1b-b808-8fb5910e027b" x1="650.91" y1="380.29" x2="417.86" y2="147.25" gradientUnits="userSpaceOnUse"><stop offset="0" stop-color="#b4bbc1"/><stop offset="0.74" stop-color="#f2f3f4"/></linearGradient><linearGradient id="ef75a418-85e4-4fea-9d95-fcbc66b7be99" x1="644.4" y1="364.47" x2="440.07" y2="160.14" gradientUnits="userSpaceOnUse"><stop offset="0" stop-color="#999"/><stop offset="0.52" stop-color="#ccc"/></linearGradient><linearGradient id="af92e60c-c262-4b4a-8b36-eb65af76cbc0" x1="505.51" y1="670.15" x2="121.52" y2="286.15" gradientUnits="userSpaceOnUse"><stop offset="0" stop-color="#2d8ac4"/><stop offset="1" stop-color="#88d2ff"/></linearGradient></defs><g id="e9f12610-a38c-4627-a0a8-b327f93ae2ec" data-name="Layer 2"><g id="f29f6bee-e730-4d70-adbf-ef610df5b598" data-name="Icon"><circle cx="534.39" cy="263.77" r="263.77" style="fill:url(#abedade9-00a8-4da7-a07f-e2d77eef6b9a)"/><circle cx="534.39" cy="263.77" r="164.79" style="fill:url(#f3a4c90e-a3d5-4d1b-b808-8fb5910e027b)"/><path d="M552.94,261c-2.62,1.31-5.06,2.71-8,1.36-1.48-.31-2-1.37-2.86-2.47-1.58-2.16-4.62-2.77-5.79-5.27-1.43-8.14,10.56-9.06,14.74-13.87,6.43-2.45,12.06-2.08,11.7,6.79C562.94,256.16,563.27,262.12,552.94,261Zm34.11-26.61c-8.54,0-.58-7.09-5.11-11.61-1.47-4,1.58-8.5-4.54-9.81a11.55,11.55,0,0,0-2.86-1.1.85.85,0,0,0-1.4,0c-4.68-1.08-6.67,5.17-10.88,5.34C557.68,218,557,225,557,229c2.86,6.61,9.49.39,9,11.68.11,7.71,9.06,8,14.64,7.81,2.57.19,5.47-.13,7-2.63C588.41,242,593.59,235,587.05,234.39Zm80.65,72.88c-3.12-2.63-4.13-5.35-3.86-9.55-.74-2.51-.77-5-1.23-7.49-2.42-5.37-6.44-7.33-12-6.67,12.5-8,5.54-8.75,2.47-19.19-.31-3.93,1.62-7.81,1.61-11.82a10.44,10.44,0,0,0-1.14-4.66c-.69-1.75.12-3.59-.12-5.4-2.34-10.08-9-.64-14.15-3.65-3.69-1.57-.52-10.87-.79-14.44-.13-6.77-7.44-10.31-8.28-17,1.29-7.22,9.77-2.68,11.62,2,.78,1.4.84,3.2,2,4.33a2.47,2.47,0,0,0,4.33-1.73c.1-3.88,2.67-1.59,3.63.39.61,1.2,1.13,2.92,2.51,3.4,3.65.72,3-4.39,1.59-6.35-1-1.2-.77-2.72-1-4.21-.08-4.71,2.69-12.23-3.5-13.72-5.33-3.27-8-2.24-13.64-1.8,3.58-6.93-6.53-5.46-9.44-9-3-2.08-4.63,2.22-7.44,1.72-1.08-.18-1.49-1.06-2.06-2-2.33-3.92-7.68-4-11.29-1.93-2.84,1.4-3.57,4.83-6.09,6.55-9.05,3.92-14-9.12-18.23,2.57-1.43,2.61-.13,6,3.09,5.23,1.39,0,3-2.14,3.81-.22,4.42,6.78-1.14,4-2.16,7.33-.4,2.29-.26,4.78-.92,7-2.29,2.46-7.26,1.4-3.35,6.47,3,3.37.61,7.66,3.78,11.57.76,1.77-.42,3.89.91,5.47,3.58,3.44,8.8.95,12.77,2.94,6.39,7.08,7.28,3.33,15.24,4.61a26.82,26.82,0,0,1-5,3.38c-3.59,3.77-10.2,1.2-13.69,5.49-2.79,3.91-.39,9.1-2.42,13.39-.8,6.51-8.47,11.76-6.74,18.16,2.9,5.64,10.51,1.39,12.3,9.63,3.85,8.06-.55,9.17-5.69,13.92-2.6,2.6-3.47,9.45,1.58,9.16,1.89-.71,2.28,1.89,2.57,3.22,1,5.24,5,9,8.16,12.84-1.36,4.83-6.29,1.2-9.32,3.31-4,3.36-2.2,10.26.35,14,1.57,2.11,3.45,4.06,3.07,7-.45,4.84,2.2,10.08,7,5.67,3-3.43,3.19-8.59,5.56-12.41,8.1-6.4,7.84-12.57,2-20.54a9.33,9.33,0,0,1-.59-4c.45-7.12-6-2.89-4.06-9.13a75.25,75.25,0,0,1,5.83-14.85c4.69-2.12,3.73-1.8,6.45-5.92,2.75-.65,3,3.58,3.66,5.46.73,1.72,6.72,6.75,8.49,6.73,2.27.3,4.59-4.53,6.23-2.07.57,2.41-2.87,3.83-3.94,5.72-2.36,2.6,0,8.44-4.14,9.62-13,3.43,12.51,39-4.52,31.66-8-2.27-7.16,8-9.37,12.94-1.78,2.15-8.77,10.93-2,10.09,10.9-6.16,13.49-1.26,23.6-4.68,4.67-.86,6.27-7.72,0-5.53-1,.35-2.62.84-3.55.05s1.13-1.51,1.63-1.81c5.09-2.8,9.62-5.06,9.17-11.94.13-2.47-1.25-4.84.33-7.17a.79.79,0,0,0,1.53.26c.32-.66,1.58-1.06,2.18-1.31a16.16,16.16,0,0,0,8.64-5.61C664.8,328.22,670.36,312.14,667.7,307.27Zm19.2-36.53c.19-6.5-1.53-16.27-8.09-18.7-.24-.85-1.59-.66-1.72.26-12.22,3.56-12.7,20.34-10.45,31C677.08,305.16,686.34,285.59,686.9,270.74ZM497.53,217.6c2.14-5.69,1.55-11.83,7-15.81,1.33-1.06,2.55-2.06,2.84-3.88,5.5-8.88-4.38-18.9-13-14.71-3.55,2.51-3.16,7.93-6.58,10.71-3,2.56-3.6,7.77-1.76,11.17,1.51,3.15,6.1,3.6,6.53,7.48.39,1.74-.83,3-1.75,4.22C488.41,223.37,495.81,222.21,497.53,217.6Zm64.85-94.66c1.48.44,2.91,1.4,2.25,3.21-2.48,9.3,13.72,2.62,18.83,6.61,8.61,5.44,7.17,12.83,18.8,12,2.24.51,1.27,3,1.84,4.67.51,1.87,1.76,2.67,3.28,3.58,3,2.61,4,7.07,7.46,9.35,4.66,3.86,10.71,4.53,16.42,4,1,.88-.23,2.58-.38,3.7-2.62,7.13,3.28,10.32,9.23,9.64,2.5-1.55,2.82-4.45,2.15-7.15.37-9.32,1.41-15.85-9-18.52-4.14-1.86-8.19-4-12.42-5.66-8.66-2-11.7-13.07-20.27-14.82a17.57,17.57,0,0,1-13.47-6c-3.23-2.82-7.85-2.66-11.24-5.16-4.42-2.23-9.45-4.32-14.43-4C557.49,118.53,559.83,122.42,562.38,122.94ZM405.82,207.61c-3.6-1.49-3.58,4.51-5.33,6.29-3.92,1.09-7.64,6.79-4.38,10.36a.71.71,0,0,0,.49.76c.48,1.35,2.15.93,3.06.25,2.83-2,1.77-5.81,3.48-8.51C404.87,214.28,408.19,210.67,405.82,207.61ZM397.67,210s0,0,0,0,.09-.06.09-.11c7.29-3.75-.37-9.14-2.22-4.88C392.09,208.12,392.74,213.82,397.67,210Zm21.09,45.65c1.66-.48,3.73-.64,5.13-1.75a3,3,0,0,1,1.11-1.35c.83-1.27,1.33-3.71.44-5-1.76-1.55-3.49.73-4.35,2.22-3.5,2.28-3.49-.21-6.91,5.09-.1,2-2.92,4.18-1.46,6.06C416,261.85,416.69,257.25,418.76,255.61Zm11.39,53.19a3.58,3.58,0,0,1-3-2.53.67.67,0,0,0,.15-1.17c.22-5.29-2.78-10.2-4.65-15-1.28-2.48-4-4.07-5-6.66-.27-2.58-.61-10.67-3.76-4.69-2.14,4.94,1.74,9.33,3.89,13.24-1.62,6.43,4.44,14.84-2.3,19.46-8.6,1.65-7,9.45,1.13,9.09,7-1.79,10.68,5.08,14.63,3.17,2.46-1.35,1.28-4.1,1.73-6.33C434.75,313.34,436.31,308.71,430.15,308.8Zm33.12.94c-2.95-1.6-6.5-1.51-9.55-2.94-.22-2.26,2-5.82-1.23-6.82-3-1.06-4,2.37-5.18,4.45-3.13,3.42-8.67,6.17-8,11.75.83,3.11,4.09,4.59,6.06,6.85,1.21,1,1.72,2.68,3.18,3.46,3.42,1.9,9.61,3.12,11.32-1.72.69-1.7.66-3.83,1.87-5.27C465.89,317.13,467.53,313.07,463.27,309.74Zm27.83,8.67c-1-2.71-5.54-4.59-7.94-3.12-6.65,2.62-2.21,7.67,3.14,6.69,1.6.71,2.3,3.27,4.24,3.14C492.91,324.07,492.25,320.23,491.1,318.41Zm-73.91,7.45c-.67-1.2-2-1.11-3.12-1.2-1.8-.82-3.49-3.13-5.68-1.64-3.36.59-1.77,5.53.27,6.85,2.31.83,4.51-1.09,6.88-.13C418.38,330.56,419,327.64,417.19,325.86Zm5.76,8.27c-.11-.53-.16-1.07-.26-1.6,1.17-1.42-1.44-1.4-2.14-.68a3.25,3.25,0,0,0-1.61,3.09c-.71,1.88-1.87,4.17-.5,6.06C423.19,344.56,424.66,337.81,423,334.13Z" style="fill:url(#ef75a418-85e4-4fea-9d95-fcbc66b7be99)"/><path d="M522.86,390.09c0-.08,0-.15,0-.23A180,180,0,0,0,436,235.73a130.19,130.19,0,0,0-78.21-26c-2.34,0-4.67.07-7,.19-2.65-.12-5.32-.19-8-.19a180.12,180.12,0,0,0-165.09,108A156,156,0,1,0,156,628.23a158.93,158.93,0,0,0,17-.92,142.83,142.83,0,0,0,16.11.92H499.69a111.6,111.6,0,0,0,54.61-14.18,120.43,120.43,0,0,0-31.44-224Z" style="fill:url(#af92e60c-c262-4b4a-8b36-eb65af76cbc0)"/></g></g></svg>