<svg xmlns="http://www.w3.org/2000/svg" xmlns:xlink="http://www.w3.org/1999/xlink" viewBox="0 0 713.24 713.24"><defs><radialGradient id="f5b73547-6528-4bbf-abcb-15d386883ff4" cx="356.62" cy="356.62" r="356.62" gradientUnits="userSpaceOnUse"><stop offset="0.41" stop-color="#65808b"/><stop offset="0.86" stop-color="#09364d"/><stop offset="0.97" stop-color="#003047"/></radialGradient><linearGradient id="b19ca8fe-6f5d-4a13-827d-bf624c01e2cd" x1="514.16" y1="514.16" x2="199.08" y2="199.08" gradientUnits="userSpaceOnUse"><stop offset="0" stop-color="#b4bbc1"/><stop offset="0.74" stop-color="#f2f3f4"/></linearGradient><linearGradient id="aaaac7c0-145b-4004-9954-1f94c1b5e8c4" x1="505.36" y1="492.77" x2="229.11" y2="216.51" gradientUnits="userSpaceOnUse"><stop offset="0" stop-color="#999"/><stop offset="0.52" stop-color="#ccc"/></linearGradient></defs><g id="a3f60320-431b-49af-bae5-b0c0a89acd07" data-name="Layer 2"><g id="bc647a4b-9a88-47fe-8e52-a3ca950b1e3c" data-name="Icon"><circle cx="356.62" cy="356.62" r="356.62" style="fill:url(#f5b73547-6528-4bbf-abcb-15d386883ff4)"/><circle cx="356.62" cy="356.62" r="222.8" style="fill:url(#b19ca8fe-6f5d-4a13-827d-bf624c01e2cd)"/><path d="M381.7,352.88c-3.54,1.77-6.83,3.66-10.77,1.84-2-.42-2.64-1.86-3.86-3.34-2.14-2.93-6.26-3.75-7.83-7.13-1.93-11,14.27-12.25,19.92-18.74,8.7-3.32,16.32-2.82,15.82,9.17C395.23,346.34,395.68,354.39,381.7,352.88Zm46.12-36c-11.54,0-.78-9.59-6.91-15.69-2-5.46,2.14-11.49-6.13-13.28a16,16,0,0,0-3.87-1.48,1.14,1.14,0,0,0-1.89-.05c-6.33-1.46-9,7-14.71,7.22-6.19,1.16-7.16,10.64-7.13,16,3.88,8.95,12.83.53,12.21,15.8.16,10.42,12.25,10.74,19.79,10.56,3.48.25,7.4-.17,9.46-3.56C429.66,327.23,436.66,317.78,427.82,316.9Zm109,98.54c-4.22-3.56-5.58-7.23-5.21-12.91-1-3.4-1-6.71-1.67-10.14-3.27-7.26-8.71-9.91-16.26-9,16.9-10.84,7.48-11.84,3.34-25.95-.43-5.31,2.19-10.56,2.17-16,.15-2.37-.71-4.19-1.54-6.3-.93-2.36.17-4.86-.15-7.29-3.17-13.64-12.16-.88-19.14-4.95-5-2.11-.7-14.69-1.07-19.52-.18-9.15-10.06-13.93-11.2-23,1.75-9.77,13.21-3.63,15.72,2.65,1,1.88,1.13,4.33,2.75,5.85a3.36,3.36,0,0,0,5.87-2.34c.12-5.25,3.6-2.15,4.9.53.83,1.61,1.53,4,3.39,4.6,4.94,1,4.1-5.94,2.16-8.59-1.4-1.63-1-3.68-1.3-5.69-.11-6.36,3.63-16.54-4.74-18.55-7.21-4.43-10.81-3-18.44-2.43,4.84-9.37-8.83-7.38-12.77-12.18-4.05-2.81-6.25,3-10.05,2.32-1.46-.24-2-1.44-2.78-2.64-3.16-5.3-10.39-5.35-15.28-2.61-3.83,1.9-4.82,6.54-8.22,8.86-12.25,5.3-18.87-12.34-24.66,3.47-1.93,3.53-.17,8.13,4.19,7.07,1.87,0,4-2.89,5.15-.3,6,9.18-1.55,5.41-2.93,9.91-.53,3.11-.34,6.46-1.24,9.48-3.09,3.34-9.82,1.89-4.52,8.75,4.07,4.55.82,10.36,5.1,15.65,1,2.38-.56,5.26,1.23,7.39,4.84,4.65,11.9,1.28,17.27,4,8.64,9.57,9.84,4.5,20.6,6.23-2,2-4.46,3.14-6.83,4.57-4.84,5.09-13.79,1.62-18.5,7.42-3.78,5.29-.53,12.3-3.27,18.1-1.09,8.81-11.45,15.9-9.12,24.56,3.93,7.62,14.22,1.88,16.63,13,5.21,10.9-.74,12.41-7.69,18.83-3.52,3.51-4.69,12.78,2.13,12.38,2.56-1,3.09,2.56,3.48,4.35,1.36,7.09,6.74,12.2,11,17.36-1.83,6.54-8.51,1.63-12.59,4.49-5.48,4.53-3,13.86.46,18.94,2.13,2.86,4.67,5.49,4.16,9.46-.62,6.54,3,13.63,9.49,7.66,4-4.64,4.31-11.62,7.52-16.77,10.94-8.66,10.59-17,2.74-27.78a12.57,12.57,0,0,1-.8-5.45c.61-9.63-8.14-3.91-5.49-12.34a101.72,101.72,0,0,1,7.88-20.07c6.35-2.87,5.05-2.44,8.73-8,3.71-.88,4.07,4.85,4.94,7.38,1,2.33,9.09,9.13,11.48,9.09,3.07.41,6.21-6.11,8.43-2.8.76,3.27-3.89,5.19-5.33,7.74-3.19,3.52-.06,11.41-5.6,13-17.56,4.64,16.92,52.74-6.11,42.81-10.82-3.07-9.68,10.81-12.66,17.49-2.42,2.91-11.87,14.77-2.75,13.65,14.74-8.33,18.23-1.71,31.9-6.34,6.32-1.16,8.49-10.43,0-7.47-1.35.47-3.53,1.13-4.8.06s1.53-2,2.21-2.45c6.88-3.77,13-6.84,12.39-16.14.19-3.33-1.68-6.54.45-9.68a1.08,1.08,0,0,0,2.08.34c.43-.88,2.12-1.43,2.94-1.77,4.62-1.39,8.63-3.6,11.68-7.58C533,443.76,540.47,422,536.86,415.44Zm26-49.4c.27-8.79-2.07-22-10.93-25.28-.33-1.15-2.15-.89-2.33.36-16.51,4.8-17.17,27.5-14.12,41.88C549.54,412.58,562.06,386.12,562.82,366Zm-256-71.84c2.89-7.7,2.1-16,9.44-21.37,1.79-1.44,3.45-2.79,3.84-5.25,7.44-12-5.93-25.55-17.63-19.9-4.8,3.41-4.28,10.74-8.9,14.49-4,3.46-4.86,10.51-2.38,15.1,2,4.27,8.25,4.88,8.83,10.11.52,2.36-1.12,4-2.36,5.71C294.47,302,304.47,300.43,306.79,294.2Zm87.69-128c2,.61,3.92,1.9,3,4.35-3.34,12.57,18.55,3.54,25.46,8.94,11.64,7.35,9.69,17.35,25.42,16.21,3,.68,1.72,4,2.48,6.31.7,2.52,2.39,3.61,4.44,4.84,4.08,3.52,5.47,9.56,10.09,12.64,6.3,5.22,14.47,6.12,22.2,5.42,1.38,1.19-.31,3.49-.52,5-3.54,9.64,4.43,14,12.48,13,3.39-2.1,3.81-6,2.92-9.67.49-12.6,1.9-21.43-12.14-25-5.6-2.53-11.07-5.42-16.79-7.66-11.71-2.64-15.82-17.67-27.41-20-7.22.05-13.23-2.79-18.2-8.15-4.37-3.82-10.62-3.59-15.21-7-6-3-12.77-5.85-19.5-5.47C387.86,160.25,391,165.52,394.48,166.21ZM182.8,280.69c-4.87-2-4.84,6.1-7.2,8.51-5.31,1.47-10.34,9.18-5.92,14a.94.94,0,0,0,.65,1c.65,1.83,2.91,1.26,4.14.34,3.83-2.64,2.39-7.86,4.71-11.51C181.52,289.71,186,284.83,182.8,280.69Zm-11,3.18,0,0c.05,0,.12-.08.12-.15,9.86-5.06-.49-12.35-3-6.59C164.23,281.38,165.12,289.1,171.77,283.87Zm28.52,61.72c2.25-.65,5-.86,6.94-2.36a4.11,4.11,0,0,1,1.5-1.84c1.12-1.71,1.8-5,.59-6.77-2.38-2.09-4.71,1-5.88,3-4.73,3.09-4.71-.28-9.34,6.89-.14,2.75-3.95,5.65-2,8.19C196.6,354,197.5,347.81,200.29,345.59ZM215.7,417.5a4.86,4.86,0,0,1-4.1-3.42.89.89,0,0,0,.22-1.57c.29-7.16-3.76-13.79-6.29-20.24-1.73-3.34-5.4-5.49-6.81-9-.38-3.49-.83-14.43-5.09-6.35-2.89,6.68,2.36,12.61,5.26,17.9-2.19,8.7,6,20.06-3.11,26.31-11.62,2.23-9.5,12.77,1.52,12.28,9.52-2.42,14.45,6.88,19.78,4.3,3.33-1.83,1.74-5.55,2.35-8.56C221.91,423.64,224,417.38,215.7,417.5Zm44.77,1.27c-4-2.16-8.78-2-12.91-4-.3-3.06,2.71-7.87-1.67-9.22-4-1.43-5.43,3.2-7,6-4.24,4.63-11.72,8.35-10.79,15.89,1.12,4.21,5.52,6.21,8.18,9.26,1.65,1.37,2.33,3.62,4.31,4.68,4.62,2.56,13,4.22,15.3-2.33.93-2.29.9-5.17,2.53-7.13C264,428.76,266.23,423.28,260.47,418.77ZM298.1,430.5c-1.39-3.67-7.49-6.21-10.73-4.22-9,3.53-3,10.37,4.24,9.05,2.17,1,3.11,4.41,5.73,4.24C300.55,438.16,299.65,433,298.1,430.5Zm-99.93,10.06c-.91-1.61-2.66-1.49-4.22-1.62-2.43-1.11-4.71-4.23-7.68-2.21-4.54.8-2.39,7.47.37,9.26,3.13,1.13,6.09-1.47,9.3-.17C199.78,446.92,200.55,443,198.17,440.56ZM206,451.75c-.15-.71-.22-1.45-.35-2.17,1.58-1.91-2-1.88-2.9-.91a4.38,4.38,0,0,0-2.17,4.17c-1,2.55-2.53,5.65-.68,8.2C206.29,465.86,208.27,456.73,206,451.75Z" style="fill:url(#aaaac7c0-145b-4004-9954-1f94c1b5e8c4)"/></g></g></svg>