<svg xmlns="http://www.w3.org/2000/svg" xmlns:xlink="http://www.w3.org/1999/xlink" viewBox="0 0 660.58 521.35"><defs><linearGradient id="b5182a3b-b5dc-4e07-9d05-2a1dc39f0aab" x1="599.31" y1="357.11" x2="303.47" y2="61.27" gradientTransform="translate(280.13 -257.91) rotate(45)" gradientUnits="userSpaceOnUse"><stop offset="0" stop-color="#f78700"/><stop offset="1" stop-color="#f4d100"/></linearGradient><linearGradient id="a18e9285-80e4-4782-bfbe-28e2f7b6a2da" x1="488.43" y1="561.85" x2="117.41" y2="190.83" gradientUnits="userSpaceOnUse"><stop offset="0" stop-color="#3d9be2"/><stop offset="1" stop-color="#b3dfff"/></linearGradient></defs><g id="e6b2253b-a485-43f1-9e95-7f8da77c7b48" data-name="Layer 2"><g id="b90eaa11-81e2-4423-a2de-f83dbfec30eb" data-name="Icon"><circle cx="451.39" cy="209.19" r="209.19" transform="translate(-15.71 380.45) rotate(-45)" style="fill:url(#b5182a3b-b5dc-4e07-9d05-2a1dc39f0aab)"/><path d="M505.19,291.25c0-.07,0-.14,0-.22a173.9,173.9,0,0,0-84-148.92A125.81,125.81,0,0,0,345.67,117q-3.39,0-6.74.18c-2.57-.11-5.14-.18-7.73-.18a174,174,0,0,0-159.51,104.4,150.69,150.69,0,1,0-21,299.92,153.78,153.78,0,0,0,16.43-.89,137.9,137.9,0,0,0,15.56.89H482.8a107.82,107.82,0,0,0,52.77-13.71,116.36,116.36,0,0,0-30.38-216.39Z" style="fill:url(#a18e9285-80e4-4782-bfbe-28e2f7b6a2da)"/></g></g></svg>