<svg xmlns="http://www.w3.org/2000/svg" xmlns:xlink="http://www.w3.org/1999/xlink" viewBox="0 0 585.51 499.6"><defs><linearGradient id="f7f607e6-5277-47aa-bc8b-c36587611770" x1="426.44" y1="426.44" x2="73.17" y2="73.17" gradientTransform="translate(249.8 -103.47) rotate(45)" gradientUnits="userSpaceOnUse"><stop offset="0" stop-color="#f78700"/><stop offset="1" stop-color="#f4d100"/></linearGradient><linearGradient id="e3d3a012-4dc7-435d-95a3-28d02885d65a" x1="522.56" y1="497.68" x2="307.58" y2="282.7" gradientUnits="userSpaceOnUse"><stop offset="0" stop-color="#3d9be2"/><stop offset="1" stop-color="#b3dfff"/></linearGradient></defs><g id="b4f37fe3-77ad-404e-b8f9-95c2e14c02be" data-name="Layer 2"><g id="f2d4083d-4b28-438f-b374-887c4f94a798" data-name="Icon"><circle cx="249.8" cy="249.8" r="249.8" transform="translate(-103.47 249.8) rotate(-45)" style="fill:url(#f7f607e6-5277-47aa-bc8b-c36587611770)"/><path d="M532.27,340.89v-.13a100.77,100.77,0,0,0-48.65-86.29,72.84,72.84,0,0,0-43.78-14.53c-1.31,0-2.62,0-3.91.1-1.49-.06-3-.1-4.48-.1A100.82,100.82,0,0,0,339,300.43a87.32,87.32,0,1,0-2.65,173.26,79,79,0,0,0,9,.52H519.3a62.54,62.54,0,0,0,30.57-7.94,67.43,67.43,0,0,0-17.6-125.38Z" style="fill:url(#e3d3a012-4dc7-435d-95a3-28d02885d65a)"/></g></g></svg>