<svg xmlns="http://www.w3.org/2000/svg" xmlns:xlink="http://www.w3.org/1999/xlink" viewBox="0 0 660.58 617.46"><defs><linearGradient id="a557d548-106a-4dad-a0d0-7d7dda13d4f2" x1="599.31" y1="357.11" x2="303.47" y2="61.27" gradientUnits="userSpaceOnUse"><stop offset="0" stop-color="#f78700"/><stop offset="1" stop-color="#f4d100"/></linearGradient><linearGradient id="b38d4530-e803-4157-836e-aa0e2a3ad214" x1="488.43" y1="561.85" x2="117.41" y2="190.83" gradientUnits="userSpaceOnUse"><stop offset="0" stop-color="#58789a"/><stop offset="1" stop-color="#9eb5cb"/></linearGradient><linearGradient id="bb9f8d43-145e-4506-9489-45ced1ac8a50" x1="363.28" y1="518.94" x2="227.05" y2="382.72" xlink:href="#a557d548-106a-4dad-a0d0-7d7dda13d4f2"/></defs><g id="aa6d1b00-c0d1-4b62-bcd9-955530a54852" data-name="Layer 2"><g id="edd41c35-8c72-4b7b-8333-f373f0f627e3" data-name="Icon"><circle cx="451.39" cy="209.19" r="209.19" style="fill:url(#a557d548-106a-4dad-a0d0-7d7dda13d4f2)"/><path d="M505.19,291.25c0-.07,0-.14,0-.22a173.9,173.9,0,0,0-84-148.92A125.81,125.81,0,0,0,345.67,117q-3.39,0-6.74.18c-2.57-.11-5.14-.18-7.73-.18a174,174,0,0,0-159.51,104.4,150.69,150.69,0,1,0-21,299.92,153.78,153.78,0,0,0,16.43-.89,137.9,137.9,0,0,0,15.56.89H482.8a107.82,107.82,0,0,0,52.77-13.71,116.36,116.36,0,0,0-30.38-216.39Z" style="fill:url(#b38d4530-e803-4157-836e-aa0e2a3ad214)"/><path d="M322.22,287.77,202,463a8.16,8.16,0,0,0,6.72,12.77h66l-21.5,132.75c-.83,8.33,10,12.34,14.77,5.49L394.8,434.08a8.15,8.15,0,0,0-6.66-12.85H318.62L337.07,293A8.15,8.15,0,0,0,322.22,287.77Z" style="fill:url(#bb9f8d43-145e-4506-9489-45ced1ac8a50)"/></g></g></svg>