<svg xmlns="http://www.w3.org/2000/svg" xmlns:xlink="http://www.w3.org/1999/xlink" viewBox="0 0 719.97 521.45"><defs><linearGradient id="afd98e12-ccc2-4c6c-af87-3f0ff0051aa8" x1="536.62" y1="448.29" x2="183.35" y2="95.01" gradientTransform="translate(297.52 -174.98) rotate(45)" gradientUnits="userSpaceOnUse"><stop offset="0" stop-color="#f78700"/><stop offset="1" stop-color="#f4d100"/></linearGradient><linearGradient id="f8722ae6-6fff-4672-a2d2-6017a2e5b2df" x1="283.01" y1="257.74" x2="68.03" y2="42.76" gradientUnits="userSpaceOnUse"><stop offset="0" stop-color="#3d9be2"/><stop offset="1" stop-color="#b3dfff"/></linearGradient><linearGradient id="b7e58d67-8aeb-403a-bec8-2bd19fa03239" x1="657.01" y1="519.53" x2="442.03" y2="304.55" xlink:href="#f8722ae6-6fff-4672-a2d2-6017a2e5b2df"/></defs><g id="a75b4f3e-997d-4cc1-9e77-39727fa26970" data-name="Layer 2"><g id="fe55a5bd-354b-496b-af43-cb01fb550333" data-name="Icon"><circle cx="359.98" cy="271.65" r="249.8" transform="translate(-86.65 334.11) rotate(-45)" style="fill:url(#afd98e12-ccc2-4c6c-af87-3f0ff0051aa8)"/><path d="M292.72,101v-.13a100.77,100.77,0,0,0-48.64-86.29A73,73,0,0,0,200.29,0c-1.31,0-2.61,0-3.91.1-1.48-.06-3-.1-4.48-.1A100.83,100.83,0,0,0,99.48,60.49a88.8,88.8,0,0,0-12.16-.85,87.32,87.32,0,1,0,9.51,174.11,79,79,0,0,0,9,.52h173.9a62.43,62.43,0,0,0,30.57-7.94A67.42,67.42,0,0,0,292.72,101Z" style="fill:url(#f8722ae6-6fff-4672-a2d2-6017a2e5b2df)"/><path d="M666.72,362.74v-.13a100.76,100.76,0,0,0-48.64-86.29,72.87,72.87,0,0,0-43.79-14.53c-1.31,0-2.61,0-3.91.1-1.48-.06-3-.1-4.48-.1a100.83,100.83,0,0,0-92.42,60.49,87.32,87.32,0,1,0-2.65,173.26,79,79,0,0,0,9,.52h173.9a62.54,62.54,0,0,0,30.57-7.94,67.42,67.42,0,0,0-17.6-125.38Z" style="fill:url(#b7e58d67-8aeb-403a-bec8-2bd19fa03239)"/></g></g></svg>