<svg xmlns="http://www.w3.org/2000/svg" xmlns:xlink="http://www.w3.org/1999/xlink" viewBox="0 0 660.58 609.46"><defs><linearGradient id="e96d4cb3-0a64-4728-8489-97514f9daa07" x1="599.31" y1="357.11" x2="303.47" y2="61.27" gradientTransform="translate(280.13 -257.91) rotate(45)" gradientUnits="userSpaceOnUse"><stop offset="0" stop-color="#f78700"/><stop offset="1" stop-color="#f4d100"/></linearGradient><linearGradient id="f273f325-c1c0-487b-a56c-78e19d955707" x1="488.43" y1="561.85" x2="117.41" y2="190.83" gradientUnits="userSpaceOnUse"><stop offset="0" stop-color="#58789a"/><stop offset="1" stop-color="#9eb5cb"/></linearGradient><linearGradient id="be8dfa03-7f0d-428f-8509-363a234a76d5" x1="323.58" y1="587.25" x2="225.6" y2="489.27" gradientTransform="matrix(-0.87, 0.49, 0.49, 0.87, 441.96, -67.64)" gradientUnits="userSpaceOnUse"><stop offset="0" stop-color="#1773e2"/><stop offset="1" stop-color="#b3dfff"/></linearGradient><linearGradient id="aa85be89-ffc5-4738-9574-6080480109a0" x1="446.29" y1="517.78" x2="348.3" y2="419.8" xlink:href="#be8dfa03-7f0d-428f-8509-363a234a76d5"/><linearGradient id="f1036140-1105-4597-84f9-bcf700595ea9" x1="574.2" y1="445.36" x2="476.22" y2="347.37" xlink:href="#be8dfa03-7f0d-428f-8509-363a234a76d5"/></defs><g id="ba9530c0-e779-4693-828b-3dafa91a7517" data-name="Layer 2"><g id="e65aa83a-0f2f-4afe-b006-917780a85d45" data-name="Icon"><circle cx="451.39" cy="209.19" r="209.19" transform="translate(-15.71 380.45) rotate(-45)" style="fill:url(#e96d4cb3-0a64-4728-8489-97514f9daa07)"/><path d="M505.2,291.25V291a173.9,173.9,0,0,0-84-148.92A125.81,125.81,0,0,0,345.67,117q-3.39,0-6.74.18c-2.57-.11-5.14-.18-7.73-.18a174,174,0,0,0-159.51,104.4,150.69,150.69,0,1,0-21,299.92,153.78,153.78,0,0,0,16.43-.89,137.9,137.9,0,0,0,15.56.89H482.8a107.82,107.82,0,0,0,52.77-13.71A116.36,116.36,0,0,0,505.2,291.25Z" style="fill:url(#f273f325-c1c0-487b-a56c-78e19d955707)"/><path d="M425.93,540.89l-9-76.42a10.14,10.14,0,0,1,16.26-9.21l60.91,47c29.83,20.41,41.17,43,37,65.28-4.08,22-20.16,32.18-25.25,35.07h0c-5.1,2.89-22.1,11.44-43.06,3.61C441.64,598.33,428.08,577,425.93,540.89Z" style="fill:url(#be8dfa03-7f0d-428f-8509-363a234a76d5)"/><path d="M284.92,540.89l-9-76.42a10.14,10.14,0,0,1,16.26-9.21l60.91,47c29.83,20.41,41.17,43,37,65.28-4.08,22-20.16,32.18-25.25,35.07h0c-5.1,2.89-22.1,11.44-43.06,3.61C300.63,598.33,287.07,577,284.92,540.89Z" style="fill:url(#aa85be89-ffc5-4738-9574-6080480109a0)"/><path d="M137.92,540.89l-9-76.42a10.14,10.14,0,0,1,16.26-9.21l60.91,47c29.83,20.41,41.17,43,37,65.28-4.08,22-20.16,32.18-25.26,35.07h0c-5.09,2.89-22.09,11.44-43.06,3.61C153.63,598.33,140.08,577,137.92,540.89Z" style="fill:url(#f1036140-1105-4597-84f9-bcf700595ea9)"/></g></g></svg>