<svg xmlns="http://www.w3.org/2000/svg" xmlns:xlink="http://www.w3.org/1999/xlink" viewBox="0 0 637.83 499.6"><defs><linearGradient id="a4e99788-4fbb-4c85-9d1e-3c35e34161e1" x1="496.16" y1="426.44" x2="142.89" y2="73.17" gradientTransform="translate(270.22 -152.77) rotate(45)" gradientUnits="userSpaceOnUse"><stop offset="0" stop-color="#f78700"/><stop offset="1" stop-color="#f4d100"/></linearGradient><linearGradient id="abafe73a-bc73-44e4-81a1-c9e7f2736813" x1="518.52" y1="507.26" x2="80.24" y2="68.98" gradientUnits="userSpaceOnUse"><stop offset="0" stop-color="#dbca8d"/><stop offset="1" stop-color="#f3ebd2"/></linearGradient></defs><g id="b3cd746d-11ec-4ec1-a09b-f8cbb7b48687" data-name="Layer 2"><g id="ac3dc7d1-456c-4e6f-9ccb-22a216644351" data-name="Icon"><circle cx="319.52" cy="249.8" r="249.8" transform="translate(-83.05 299.1) rotate(-45)" style="fill:url(#a4e99788-4fbb-4c85-9d1e-3c35e34161e1)"/><path d="M42.66,114.54h0A19.25,19.25,0,0,1,61.91,95.29H278.16a19.25,19.25,0,0,1,19.26,19.25h0a19.26,19.26,0,0,1-19.26,19.26H61.91A19.25,19.25,0,0,1,42.66,114.54Zm341.26,95.64H454.7A19.25,19.25,0,0,0,474,190.92h0a19.25,19.25,0,0,0-19.25-19.25H383.92a19.25,19.25,0,0,0-19.26,19.25h0A19.26,19.26,0,0,0,383.92,210.18Zm-364.66,0H321.82a19.26,19.26,0,0,0,19.26-19.26h0a19.26,19.26,0,0,0-19.26-19.25H19.26A19.25,19.25,0,0,0,0,190.92H0A19.26,19.26,0,0,0,19.26,210.18ZM575.92,403.37H359.67a19.26,19.26,0,0,0-19.26,19.26h0a19.25,19.25,0,0,0,19.26,19.25H575.92a19.25,19.25,0,0,0,19.25-19.25h0A19.25,19.25,0,0,0,575.92,403.37ZM618.57,327H316a19.25,19.25,0,0,0-19.25,19.26h0A19.25,19.25,0,0,0,316,365.5H618.57a19.25,19.25,0,0,0,19.26-19.25h0A19.26,19.26,0,0,0,618.57,327Zm-364.66,0H183.13a19.25,19.25,0,0,0-19.25,19.26h0a19.25,19.25,0,0,0,19.25,19.25h70.78a19.25,19.25,0,0,0,19.26-19.25h0A19.26,19.26,0,0,0,253.91,327Zm56.91-38.68H381.6a19.25,19.25,0,0,0,19.25-19.25h0A19.25,19.25,0,0,0,381.6,249.8H310.82a19.26,19.26,0,0,0-19.26,19.26h0A19.25,19.25,0,0,0,310.82,288.31ZM268,269.06h0a19.25,19.25,0,0,0-19.25-19.26H19.26A19.26,19.26,0,0,0,0,269.06H0a19.25,19.25,0,0,0,19.26,19.25H248.72A19.25,19.25,0,0,0,268,269.06Z" style="fill:url(#abafe73a-bc73-44e4-81a1-c9e7f2736813)"/></g></g></svg>