<svg xmlns="http://www.w3.org/2000/svg" xmlns:xlink="http://www.w3.org/1999/xlink" viewBox="0 0 785.37 609.46"><defs><linearGradient id="f8897b53-4c70-46a9-b0aa-f03944bd79ae" x1="676.71" y1="561.85" x2="305.69" y2="190.83" gradientUnits="userSpaceOnUse"><stop offset="0" stop-color="#58789a"/><stop offset="1" stop-color="#9eb5cb"/></linearGradient><linearGradient id="a508f38c-b7e2-4898-9fed-43a98b5876a6" x1="389.26" y1="354.51" x2="93.57" y2="58.81" xlink:href="#f8897b53-4c70-46a9-b0aa-f03944bd79ae"/><linearGradient id="a9e7a97a-228c-4de6-a681-a01729e9447d" x1="521.88" y1="-574.3" x2="423.9" y2="-672.29" gradientTransform="matrix(-0.87, 0.49, 0.49, 0.87, 1374.29, 845.44)" gradientUnits="userSpaceOnUse"><stop offset="0" stop-color="#1773e2"/><stop offset="1" stop-color="#b3dfff"/></linearGradient><linearGradient id="fa45b41c-382c-4f49-b9b2-e9f454663e01" x1="644.59" y1="-643.78" x2="546.61" y2="-741.76" xlink:href="#a9e7a97a-228c-4de6-a681-a01729e9447d"/><linearGradient id="f19a5ba4-a514-429d-b796-db2d66269ad1" x1="772.51" y1="-716.2" x2="674.52" y2="-814.19" xlink:href="#a9e7a97a-228c-4de6-a681-a01729e9447d"/><linearGradient id="efb8a4b7-9dd0-4e69-a19b-1ff3f94128c9" x1="295.92" y1="319.04" x2="159.69" y2="182.82" gradientUnits="userSpaceOnUse"><stop offset="0" stop-color="#f78700"/><stop offset="1" stop-color="#f4d100"/></linearGradient></defs><g id="e63ee6a4-13d2-4069-bf1e-feffa4a55a78" data-name="Layer 2"><g id="b5edddf7-1edd-4ad7-9083-92303e6cd313" data-name="Icon"><path d="M693.48,291.25V291a173.9,173.9,0,0,0-84-148.92A125.81,125.81,0,0,0,534,117q-3.39,0-6.74.18c-2.57-.11-5.14-.18-7.73-.18A174,174,0,0,0,360,221.43a150.69,150.69,0,1,0-21,299.92,153.78,153.78,0,0,0,16.43-.89,137.9,137.9,0,0,0,15.56.89H671.08a107.82,107.82,0,0,0,52.77-13.71,116.36,116.36,0,0,0-30.37-216.39Z" style="fill:url(#f8897b53-4c70-46a9-b0aa-f03944bd79ae)"/><path d="M402.63,138.85v-.18A138.6,138.6,0,0,0,335.72,20,100.24,100.24,0,0,0,275.49,0c-1.8,0-3.6.05-5.38.14Q267,0,264,0A138.7,138.7,0,0,0,136.83,83.2,121.46,121.46,0,0,0,120.1,82a120.1,120.1,0,0,0,0,240.2,123.06,123.06,0,0,0,13.09-.71,110.4,110.4,0,0,0,12.4.71H384.78a86,86,0,0,0,42.05-10.92,92.74,92.74,0,0,0-24.2-172.46Z" style="fill:url(#a508f38c-b7e2-4898-9fed-43a98b5876a6)"/><path d="M613.39,540.89l-9-76.42a10.14,10.14,0,0,1,16.26-9.21l60.91,47c29.83,20.41,41.17,43,37,65.28-4.08,22-20.16,32.18-25.25,35.07h0c-5.1,2.89-22.09,11.44-43.06,3.61C629.1,598.33,615.54,577,613.39,540.89Z" style="fill:url(#a9e7a97a-228c-4de6-a681-a01729e9447d)"/><path d="M472.38,540.89l-9-76.42a10.14,10.14,0,0,1,16.26-9.21l60.91,47c29.83,20.41,41.17,43,37,65.28-4.08,22-20.16,32.18-25.25,35.07h0c-5.1,2.89-22.09,11.44-43.06,3.61C488.09,598.33,474.53,577,472.38,540.89Z" style="fill:url(#fa45b41c-382c-4f49-b9b2-e9f454663e01)"/><path d="M325.39,540.89l-9-76.42a10.14,10.14,0,0,1,16.26-9.21l60.91,47c29.84,20.41,41.17,43,37.05,65.28-4.08,22-20.16,32.18-25.26,35.07h0c-5.09,2.89-22.09,11.44-43.06,3.61C341.09,598.33,327.54,577,325.39,540.89Z" style="fill:url(#f19a5ba4-a514-429d-b796-db2d66269ad1)"/><path d="M254.86,87.86,134.66,263.07a8.15,8.15,0,0,0,6.72,12.76h66L185.91,408.59c-.82,8.33,10,12.34,14.78,5.49L327.44,234.17a8.15,8.15,0,0,0-6.66-12.84H251.26L269.71,93.11A8.15,8.15,0,0,0,254.86,87.86Z" style="fill:url(#efb8a4b7-9dd0-4e69-a19b-1ff3f94128c9)"/></g></g></svg>